<svg xmlns="http://www.w3.org/2000/svg" viewBox="0 0 512 512" width="512" height="512"><rect width="512" height="512" rx="113" fill="#0F172A"/><defs><clipPath id="clipCircle"><circle cx="256.0" cy="256.0" r="180"/></clipPath></defs><g clip-path="url(#clipCircle)"><circle cx="256.0" cy="256.0" r="180" fill="#45266D"/><path d="M 67.0 180.4 C 157.0 97.6, 283.0 115.6, 439.6 173.2" fill="none" stroke="#FFFFFF" stroke-width="43.199999999999996" stroke-linecap="round"/><path d="M 67.0 252.4 C 175.0 331.6, 283.0 223.6, 439.6 259.6" fill="none" stroke="#FFFFFF" stroke-width="43.199999999999996" stroke-linecap="round"/><path d="M 198.4 414.4 C 288.4 353.2, 324.4 295.6, 421.6 265.0" fill="none" stroke="#FFFFFF" stroke-width="43.199999999999996" stroke-linecap="round"/><path d="M 67.0 180.4 C 157.0 97.6, 283.0 115.6, 439.6 173.2" fill="none" stroke="#45266D" stroke-width="32.4" stroke-linecap="round"/><path d="M 67.0 252.4 C 175.0 331.6, 283.0 223.6, 439.6 259.6" fill="none" stroke="#45266D" stroke-width="32.4" stroke-linecap="round"/><path d="M 198.4 414.4 C 288.4 353.2, 324.4 295.6, 421.6 265.0" fill="none" stroke="#45266D" stroke-width="32.4" stroke-linecap="round"/></g><circle cx="256.0" cy="256.0" r="180" fill="none" stroke="none"/></svg>