<svg xmlns="http://www.w3.org/2000/svg" viewBox="0 0 1200 420" width="1200" height="420"><rect width="1200" height="420" rx="28" fill="#0F172A"/><g transform="translate(0,20) scale(1,1)"><defs><clipPath id="clipCircle"><circle cx="190.0" cy="190.0" r="133.76"/></clipPath></defs><g clip-path="url(#clipCircle)"><circle cx="190.0" cy="190.0" r="133.76" fill="#45266D"/><path d="M 49.55199999999999 133.82080000000002 C 116.432 72.2912, 210.064 85.66720000000001, 326.4352 128.4704" fill="none" stroke="#FFFFFF" stroke-width="32.102399999999996" stroke-linecap="round"/><path d="M 49.55199999999999 187.3248 C 129.808 246.17919999999998, 210.064 165.9232, 326.4352 192.6752" fill="none" stroke="#FFFFFF" stroke-width="32.102399999999996" stroke-linecap="round"/><path d="M 147.1968 307.7088 C 214.0768 262.23040000000003, 240.8288 219.4272, 313.0592 196.688" fill="none" stroke="#FFFFFF" stroke-width="32.102399999999996" stroke-linecap="round"/><path d="M 49.55199999999999 133.82080000000002 C 116.432 72.2912, 210.064 85.66720000000001, 326.4352 128.4704" fill="none" stroke="#45266D" stroke-width="24.0768" stroke-linecap="round"/><path d="M 49.55199999999999 187.3248 C 129.808 246.17919999999998, 210.064 165.9232, 326.4352 192.6752" fill="none" stroke="#F97316" stroke-width="24.0768" stroke-linecap="round"/><path d="M 147.1968 307.7088 C 214.0768 262.23040000000003, 240.8288 219.4272, 313.0592 196.688" fill="none" stroke="#16A34A" stroke-width="24.0768" stroke-linecap="round"/><path d="M 276.944 214.0768 C 291.6576 204.71359999999999, 305.0336 194.0128, 317.072 179.2992" fill="none" stroke="#14B8A6" stroke-width="9.3632" stroke-linecap="round"/></g><circle cx="190.0" cy="190.0" r="133.76" fill="none" stroke="none"/></g><text x="360" y="255" font-family="Inter, Segoe UI, Arial, sans-serif" font-size="116" font-weight="700" fill="#FFFFFF" letter-spacing="-3">Panteray</text></svg>