<svg xmlns="http://www.w3.org/2000/svg" style="display:none"><symbol id="pt-dashboard" viewBox="0 0 24 24"><path d="M4 4h7v7H4z"/><path d="M13 4h7v5h-7z"/><path d="M13 11h7v9h-7z"/><path d="M4 13h7v7H4z"/></symbol><symbol id="pt-management" viewBox="0 0 24 24"><path d="M4 7h16"/><path d="M4 12h16"/><path d="M4 17h16"/><circle cx="8" cy="7" r="1.5"/><circle cx="16" cy="12" r="1.5"/><circle cx="10" cy="17" r="1.5"/></symbol><symbol id="pt-opportunities" viewBox="0 0 24 24"><circle cx="11" cy="11" r="7"/><path d="m11 11 8-8"/><path d="M11 6a5 5 0 1 1-5 5"/></symbol><symbol id="pt-customers" viewBox="0 0 24 24"><path d="M16 21v-2a4 4 0 0 0-4-4H7a4 4 0 0 0-4 4v2"/><circle cx="9.5" cy="7" r="3"/><path d="M20 21v-2a4 4 0 0 0-3-3.87"/><path d="M16 4.13a3 3 0 0 1 0 5.74"/></symbol><symbol id="pt-manufacturers" viewBox="0 0 24 24"><path d="M3 21h18"/><path d="M5 21V9l5 3V9l4 3V4h5v17"/></symbol><symbol id="pt-designs" viewBox="0 0 24 24"><path d="m4 20 4.5-1 9.8-9.8a2.1 2.1 0 0 0-3-3L5.5 16 4 20z"/><path d="m13.5 7.5 3 3"/></symbol><symbol id="pt-subcontractors" viewBox="0 0 24 24"><path d="m8.5 12.5 3 3 4-4"/><path d="M3 12l3-3 3 3"/><path d="m21 12-3 3-3-3"/><path d="M12 3l3 3-3 3"/><path d="m12 21-3-3 3-3"/></symbol><symbol id="pt-distributors" viewBox="0 0 24 24"><path d="M3 7h10v9H3z"/><path d="M13 10h4l4 4v2h-8z"/><circle cx="7.5" cy="18" r="1.5"/><circle cx="17.5" cy="18" r="1.5"/></symbol><symbol id="pt-presales" viewBox="0 0 24 24"><rect x="6" y="3" width="12" height="18" rx="2"/><path d="M9 7h6"/><path d="M9 12l2 2 4-4"/></symbol><symbol id="pt-device-library" viewBox="0 0 24 24"><path d="M4 6h10l2 2h4v10a2 2 0 0 1-2 2H6a2 2 0 0 1-2-2z"/><rect x="9" y="10" width="6" height="8" rx="1.2"/></symbol><symbol id="pt-calculators" viewBox="0 0 24 24"><rect x="5" y="3" width="14" height="18" rx="2"/><path d="M8 7h8"/><path d="M8 12h2"/><path d="M12 12h2"/><path d="M16 12h0"/><path d="M8 16h2"/><path d="M12 16h2"/><path d="M16 16h0"/></symbol><symbol id="pt-settings" viewBox="0 0 24 24"><circle cx="12" cy="12" r="3"/><path d="M19.4 15a1.7 1.7 0 0 0 .34 1.87l.06.06a2 2 0 1 1-2.83 2.83l-.06-.06A1.7 1.7 0 0 0 15 19.4a1.7 1.7 0 0 0-1 .6 1.7 1.7 0 0 0-.4 1.1V21a2 2 0 1 1-4 0v-.1a1.7 1.7 0 0 0-.4-1.1 1.7 1.7 0 0 0-1-.6 1.7 1.7 0 0 0-1.87.34l-.06.06a2 2 0 1 1-2.83-2.83l.06-.06A1.7 1.7 0 0 0 4.6 15a1.7 1.7 0 0 0-.6-1 1.7 1.7 0 0 0-1.1-.4H2.8a2 2 0 1 1 0-4h.1a1.7 1.7 0 0 0 1.1-.4 1.7 1.7 0 0 0 .6-1 1.7 1.7 0 0 0-.34-1.87l-.06-.06a2 2 0 1 1 2.83-2.83l.06.06A1.7 1.7 0 0 0 9 4.6a1.7 1.7 0 0 0 1-.6 1.7 1.7 0 0 0 .4-1.1V2.8a2 2 0 1 1 4 0v.1a1.7 1.7 0 0 0 .4 1.1 1.7 1.7 0 0 0 1 .6 1.7 1.7 0 0 0 1.87-.34l.06-.06a2 2 0 1 1 2.83 2.83l-.06.06A1.7 1.7 0 0 0 19.4 9c.27.3.48.65.6 1a1.7 1.7 0 0 0 1.1.4h.1a2 2 0 1 1 0 4h-.1a1.7 1.7 0 0 0-1.1.4 1.7 1.7 0 0 0-.6 1z"/></symbol><symbol id="pt-collapse" viewBox="0 0 24 24"><path d="M18 5 8 12l10 7"/><path d="M6 5v14"/></symbol><symbol id="pt-sign-out" viewBox="0 0 24 24"><path d="M14 16l4-4-4-4"/><path d="M9 12h9"/><path d="M11 20H5a2 2 0 0 1-2-2V6a2 2 0 0 1 2-2h6"/></symbol></svg>